<?xml version="1.0" encoding="UTF-8"?>
<!DOCTYPE svg PUBLIC "-//W3C//DTD SVG 1.1//EN" "http://www.w3.org/Graphics/SVG/1.1/DTD/svg11.dtd">
<!-- Creator: CorelDRAW 2020 (64-Bit) -->
<svg xmlns="http://www.w3.org/2000/svg" xml:space="preserve" width="123.371mm" height="210mm" version="1.1" style="shape-rendering:geometricPrecision; text-rendering:geometricPrecision; image-rendering:optimizeQuality; fill-rule:evenodd; clip-rule:evenodd"
viewBox="0 0 12337.08 20999.99"
 xmlns:xlink="http://www.w3.org/1999/xlink"
 xmlns:xodm="http://www.corel.com/coreldraw/odm/2003">
 <defs>
  <style type="text/css">
   <![CDATA[
    .fil0 {fill:#36AEEA;fill-rule:nonzero}
   ]]>
  </style>
 </defs>
 <g id="Слой_x0020_1">
  <metadata id="CorelCorpID_0Corel-Layer"/>
  <g id="_359678096">
   <g>
    <path class="fil0" d="M4145.72 10504.43l7856.04 -7856.38c216.32,-215.8 335.32,-504.34 335.32,-812 0,-307.83 -119,-596.2 -335.32,-812.34l-688.39 -688.05c-215.98,-216.49 -504.68,-335.66 -812.34,-335.66 -307.66,0 -596.02,119.17 -812.17,335.66l-9353.87 9353.7c-217,216.83 -335.83,506.56 -334.98,814.56 -0.85,309.37 117.8,598.76 334.98,815.76l9345.16 9344.65c216.15,216.49 504.51,335.66 812.34,335.66 307.66,0 596.02,-119.17 812.34,-335.66l688.22 -688.05c447.83,-447.83 447.83,-1176.85 0,-1624.51l-7847.33 -7847.34z"/>
   </g>
  </g>
 </g>
</svg>
