<?xml version="1.0" encoding="UTF-8"?>
<!DOCTYPE svg PUBLIC "-//W3C//DTD SVG 1.1//EN" "http://www.w3.org/Graphics/SVG/1.1/DTD/svg11.dtd">
<!-- Creator: CorelDRAW 2020 (64-Bit) -->
<svg xmlns="http://www.w3.org/2000/svg" xml:space="preserve" width="123.373mm" height="210mm" version="1.1" style="shape-rendering:geometricPrecision; text-rendering:geometricPrecision; image-rendering:optimizeQuality; fill-rule:evenodd; clip-rule:evenodd"
viewBox="0 0 12337.32 20999.99"
 xmlns:xlink="http://www.w3.org/1999/xlink"
 xmlns:xodm="http://www.corel.com/coreldraw/odm/2003">
 <defs>
  <style type="text/css">
   <![CDATA[
    .fil0 {fill:#36AEEA;fill-rule:nonzero}
   ]]>
  </style>
 </defs>
 <g id="Слой_x0020_1">
  <metadata id="CorelCorpID_0Corel-Layer"/>
  <g id="_168800624">
   <g>
    <path class="fil0" d="M12002.34 9680.57l-9345.25 -9345.08c-216.15,-216.32 -504.68,-335.49 -812.34,-335.49 -307.66,0 -596.19,119.17 -812.33,335.49l-688.21 688.04c-447.83,448.34 -447.83,1177.01 0,1624.67l7847.43 7847.44 -7856.15 7856.15c-216.14,216.32 -335.49,504.68 -335.49,812.16 0,307.83 119.34,596.19 335.49,812.68l688.21 687.87c216.32,216.32 504.68,335.49 812.33,335.49 307.65,0 596.19,-119.17 812.33,-335.49l9353.98 -9353.63c216.66,-217 335.66,-506.73 334.97,-814.73 0.69,-309.18 -118.31,-598.74 -334.97,-815.57z"/>
   </g>
  </g>
 </g>
</svg>
